<svg width="24" height="24" viewBox="0 0 24 24" version="1.1" xmlns="http://www.w3.org/2000/svg"><path d="M 5.4550781 3.7792969 C 5.0758645 3.7960187 4.6917094 3.8878716 4.3300781 4.078125 C 3.6068155 4.4586317 3.0604989 5.2873931 3.03125 6.4121094 L 3.03125 6.4199219 L 3.0234375 17.064453 C 2.9939655 17.861023 3.1978409 18.678227 3.8027344 19.242188 C 4.4076279 19.806149 5.3480669 20.006368 6.4746094 19.769531 L 12.462891 18.519531 L 12.464844 18.519531 C 13.678323 18.256349 14.625 17.277723 14.625 16 L 14.625 8 C 14.6262 6.7642163 13.645751 5.8247814 12.501953 5.546875 L 6.5195312 3.921875 L 6.5488281 3.9316406 C 6.2085661 3.82098 5.8342918 3.7625751 5.4550781 3.7792969 z M 5.5195312 5.0351562 C 5.7394784 5.0257104 5.9646531 5.0549248 6.1621094 5.1191406 L 6.1757812 5.125 L 12.197266 6.7578125 L 12.205078 6.7597656 C 12.88745 6.9245018 13.375525 7.4464063 13.375 8 L 13.375 16 C 13.375 16.722273 12.987295 17.127913 12.199219 17.298828 L 12.205078 17.298828 L 6.21875 18.546875 L 6.2167969 18.546875 C 5.3440363 18.730358 4.9113019 18.569695 4.6542969 18.330078 C 4.3972886 18.090464 4.2510297 17.662226 4.2714844 17.109375 L 4.2714844 17.097656 L 4.2714844 17.087891 L 4.2792969 6.4453125 C 4.2996662 5.6620458 4.5666013 5.3653648 4.9121094 5.1835938 C 5.0848634 5.0927083 5.2995841 5.0446021 5.5195312 5.0351562 z M 14.214844 6.1699219 C 14.874297 6.6048638 15.340684 7.3026621 15.339844 8.140625 L 15.339844 15.884766 C 15.339844 16.664877 14.974111 17.328706 14.410156 17.777344 L 14.523438 17.753906 L 14.525391 17.753906 C 15.600189 17.520801 16.439453 16.655136 16.439453 15.523438 L 16.439453 8.4375 C 16.440553 7.3429458 15.571675 6.5098181 14.558594 6.2636719 L 14.214844 6.1699219 z M 16.134766 6.8769531 C 16.654091 7.2657444 17.012363 7.8486245 17.011719 8.5390625 L 17.011719 15.412109 C 17.011719 16.087593 16.702486 16.663019 16.222656 17.060547 L 16.283203 17.048828 C 17.230206 16.843439 17.96875 16.07917 17.96875 15.082031 L 17.96875 8.8398438 C 17.969708 7.8754332 17.205124 7.1426605 16.3125 6.9257812 L 16.134766 6.8769531 z M 17.921875 7.6914062 C 18.254334 8.0220515 18.47118 8.4599486 18.470703 8.9628906 L 18.470703 15.027344 C 18.470703 15.471372 18.318335 15.867192 18.066406 16.185547 C 18.768064 15.954715 19.291016 15.349103 19.291016 14.578125 L 19.291016 9.3007812 C 19.291814 8.4974306 18.662164 7.8847596 17.921875 7.6914062 z M 10.310547 10.572266 L 8.9824219 13.705078 L 7.7480469 11.832031 L 5.9023438 16.083984 L 12.345703 15.259766 L 10.310547 10.572266 z " /></svg>
