<svg width="24" height="24" viewBox="0 0 24 24" version="1.1" xmlns="http://www.w3.org/2000/svg"><path d="M 3 3 L 3 11 L 11 11 L 11 3 L 3 3 z M 13 3 L 13 11 L 21 11 L 21 3 L 13 3 z M 5 5 L 9 5 L 9 9 L 5 9 L 5 5 z M 15 5 L 19 5 L 19 9 L 15 9 L 15 5 z M 3 13 L 3 21 L 11 21 L 11 13 L 3 13 z M 13 13 L 13 21 L 13.542969 21 L 15.003906 19.539062 L 15 18.457031 L 13.210938 16.667969 L 15.607422 14.271484 L 16.667969 13.210938 L 18.457031 15 L 19.542969 15 L 21 13.542969 L 21 13 L 13 13 z M 5 15 L 9 15 L 9 19 L 5 19 L 5 15 z M 16.667969 15.332031 L 15.332031 16.667969 L 17.664062 19 L 15.332031 21.332031 L 16.667969 22.667969 L 19 20.335938 L 21.332031 22.667969 L 22.667969 21.332031 L 20.335938 19 L 22.667969 16.667969 L 21.332031 15.332031 L 19 17.664062 L 16.667969 15.332031 z " /></svg>
