<svg width="24" height="24" viewBox="0 0 24 24" version="1.1" xmlns="http://www.w3.org/2000/svg"><path d="M 3.6667969 4 C 2.7501311 4 2 4.7999574 2 5.7777344 L 2 18.222266 C 2 19.200045 2.7501311 20 3.6667969 20 L 15.333203 20 C 16.249869 20 17 19.200045 17 18.222266 L 17 5.7777344 C 17 4.7999574 16.249869 4 15.333203 4 L 3.6667969 4 z M 18 5 L 18 19 C 18.999999 19 19.4 18.599999 19.4 17.6 L 19.4 6.4 C 19.4 5.400001 18.999999 5 18 5 z M 20.4 5.8 L 20.4 18.2 C 20.999999 18.2 21.2 17.8 21.2 17.4 L 21.2 6.6 C 21.2 6.2000004 20.999999 5.8 20.4 5.8 z M 4 6 L 15 6 L 15 18 L 4 18 L 4 6 z M 11.283203 11.875391 L 8.7832031 15.315625 L 7 13.013281 L 4.8125 16 L 14.1875 16 L 11.283203 11.875391 z " /></svg>
